<svg width="52" height="54" viewBox="0 0 52 54" fill="none" xmlns="http://www.w3.org/2000/svg">
<path d="M39.875 23.125C38.0345 23.1613 36.2333 22.5902 34.75 21.5C34.4722 21.3153 34.1603 21.1881 33.8326 21.1258C33.5049 21.0635 33.1681 21.0674 32.8419 21.1373C32.5158 21.2072 32.2069 21.3416 31.9335 21.5327C31.6601 21.7238 31.4277 21.9677 31.25 22.25C31.0529 22.4844 30.9057 22.7567 30.8175 23.05C30.7293 23.3433 30.7019 23.6515 30.7371 23.9558C30.7722 24.2601 30.869 24.554 31.0217 24.8195C31.1744 25.085 31.3797 25.3166 31.625 25.5C33.2335 26.6288 35.067 27.3964 37 27.75V30.5C37 31.163 37.2634 31.7989 37.7322 32.2678C38.2011 32.7366 38.837 33 39.5 33C40.163 33 40.7989 32.7366 41.2678 32.2678C41.7366 31.7989 42 31.163 42 30.5V27.75C43.3712 27.5478 44.6648 26.9872 45.75 26.125C46.5336 25.5498 47.169 24.7963 47.6037 23.9268C48.0384 23.0574 48.2599 22.097 48.25 21.125C48.25 16.5 44 15 40.375 14.25C36.75 13.5 36 12.625 36 12C36 11.375 36.25 11.25 36.625 10.875C37.3146 10.5043 38.0933 10.3312 38.875 10.375C40.3274 10.3624 41.7551 10.7518 43 11.5C43.2531 11.7065 43.548 11.8554 43.8644 11.9365C44.1808 12.0175 44.5111 12.0286 44.8323 11.9692C45.1534 11.9097 45.4578 11.781 45.7242 11.5921C45.9906 11.4031 46.2127 11.1584 46.375 10.875C46.5893 10.6194 46.7473 10.3215 46.8388 10.0008C46.9303 9.68003 46.9532 9.34361 46.906 9.01343C46.8588 8.68325 46.7426 8.3667 46.565 8.0844C46.3874 7.80211 46.1523 7.56039 45.875 7.375C44.6864 6.64132 43.3728 6.13284 42 5.875V3C42 2.33696 41.7366 1.70107 41.2678 1.23223C40.7989 0.763392 40.163 0.5 39.5 0.5C38.837 0.5 38.2011 0.763392 37.7322 1.23223C37.2634 1.70107 37 2.33696 37 3V5.75C33.25 6.375 30.75 8.875 30.75 12.25C30.75 15.625 34.875 18.375 38.875 19.125C42.875 19.875 43 20.75 43 21.375C43 22 41.625 23.125 39.875 23.125Z" fill="#FF0000"/>
<path d="M49.75 37.625C49.0556 37.065 48.2533 36.6538 47.3931 36.4173C46.5329 36.1807 45.6332 36.1238 44.75 36.25L32.375 38.5C32.3815 37.7292 32.2295 36.9653 31.9285 36.2557C31.6274 35.5461 31.1838 34.906 30.625 34.375L21.75 25.5H3.25C2.58696 25.5 1.95107 25.7634 1.48223 26.2322C1.01339 26.7011 0.75 27.337 0.75 28V39.25C0.75 39.913 1.01339 40.5489 1.48223 41.0178C1.95107 41.4866 2.58696 41.75 3.25 41.75H7.375L21.375 53.125L46.875 48.5C48.0271 48.2751 49.0925 47.7302 49.9493 46.9279C50.8061 46.1255 51.4197 45.0981 51.7197 43.9633C52.0197 42.8284 51.9941 41.632 51.6457 40.5111C51.2974 39.3901 50.6404 38.3899 49.75 37.625ZM46 43.625L22.625 47.875L9.5 37V30.5H19.75L27.125 37.875C27.3239 38.0739 27.4357 38.3437 27.4357 38.625C27.4357 38.9063 27.3239 39.1761 27.125 39.375C26.9261 39.5739 26.6563 39.6857 26.375 39.6857C26.0937 39.6857 25.8239 39.5739 25.625 39.375L21.25 35C20.7686 34.6389 20.1731 34.4636 19.5728 34.5063C18.9725 34.549 18.4078 34.8067 17.9822 35.2322C17.5567 35.6578 17.299 36.2225 17.2563 36.8228C17.2136 37.4231 17.3889 38.0186 17.75 38.5L22.125 42.875C22.6703 43.4495 23.3307 43.9023 24.0631 44.2039C24.7955 44.5055 25.5833 44.649 26.375 44.625C27.1403 44.6216 27.9 44.495 28.625 44.25L45.625 41.25C45.9781 41.2005 46.3367 41.2901 46.625 41.5C46.7477 41.6096 46.8448 41.7447 46.9096 41.8959C46.9744 42.0471 47.0053 42.2106 47 42.375C47.0059 42.6674 46.9091 42.9527 46.7263 43.1811C46.5436 43.4095 46.2866 43.5666 46 43.625Z" fill="#FF0000"/>
</svg>
