<svg width="54" height="36" viewBox="0 0 54 36" fill="none" xmlns="http://www.w3.org/2000/svg">
<path d="M42 35.625C45.1066 35.625 47.625 33.1066 47.625 30C47.625 26.8934 45.1066 24.375 42 24.375C38.8934 24.375 36.375 26.8934 36.375 30C36.375 33.1066 38.8934 35.625 42 35.625Z" fill="#FF0000"/>
<path d="M12 35.625C15.1066 35.625 17.625 33.1066 17.625 30C17.625 26.8934 15.1066 24.375 12 24.375C8.8934 24.375 6.375 26.8934 6.375 30C6.375 33.1066 8.8934 35.625 12 35.625Z" fill="#FF0000"/>
<path d="M52.875 17.625L45.375 8.25C45 7.6875 44.4375 7.5 43.875 7.5H34.5V1.875C34.5 0.75 33.75 0 32.625 0H2.625C1.5 0 0.75 0.75 0.75 1.875V30C0.75 31.125 1.5 31.875 2.625 31.875H2.8125C2.625 31.3125 2.625 30.5625 2.625 30C2.625 24.75 6.75 20.625 12 20.625C17.25 20.625 21.375 24.75 21.375 30C21.375 30.5625 21.375 31.3125 21.1875 31.875H32.625H32.8125C32.625 31.3125 32.625 30.5625 32.625 30C32.625 24.75 36.75 20.625 42 20.625C47.25 20.625 51.375 24.75 51.375 30C51.375 30.5625 51.375 31.3125 51.1875 31.875H51.375C52.5 31.875 53.25 31.125 53.25 30V18.75C53.25 18.375 53.0625 18 52.875 17.625Z" fill="#FF0000"/>
</svg>
