<svg width="44" height="60" viewBox="0 0 44 60" fill="none" xmlns="http://www.w3.org/2000/svg">
<path d="M31.7608 44.8343V54.0919L36.1963 55.9379V42.4083C34.803 43.3639 33.317 44.1766 31.7608 44.8343ZM7.80378 42.4083V55.8456L12.2392 53.9995V44.8343C10.683 44.1767 9.19704 43.3639 7.80378 42.4083ZM22 46.8038C19.9055 46.8049 17.8192 46.5443 15.7894 46.0279V60L22 57.4152L28.2105 59.9999V46.0279C26.1808 46.5442 24.0944 46.8049 22 46.8038ZM22 0C10.075 0 0.373291 9.7017 0.373291 21.6268C0.373291 33.5519 10.075 43.2535 22 43.2535C33.9249 43.2535 43.6268 33.5518 43.6268 21.6267C43.6268 9.70158 33.9251 0 22 0ZM22 38.6835C12.5461 38.6835 4.85477 30.9922 4.85477 21.5383C4.85477 12.0844 12.5461 4.393 22 4.393C31.4538 4.393 39.1452 12.0844 39.1452 21.5383C39.1452 30.9923 31.4539 38.6835 22 38.6835ZM22 7.94319C14.5037 7.94319 8.40495 14.0418 8.40495 21.5383C8.40495 29.0348 14.5037 35.1332 22 35.1332C29.4962 35.1332 35.595 29.0346 35.595 21.5382C35.595 14.0418 29.4963 7.94319 22 7.94319ZM27.5876 29.4726L22 26.5351L16.4125 29.4726L17.4796 23.2509L12.9592 18.8447L19.2063 17.9368L22 12.276L24.7937 17.9368L31.0408 18.8447L26.5205 23.2509L27.5876 29.4726Z" fill="#FF0000"/>
</svg>
